<svg width="555" height="395" viewBox="0 0 555 395" fill="none" xmlns="http://www.w3.org/2000/svg">
<path d="M458.764 344.495C418.646 372.879 373.982 388.244 325.752 392.378C299.763 394.605 273.512 394.172 247.377 394.22C169.053 394.365 90.7275 394.155 12.4025 394.084C8.75938 394.081 5.11629 394.084 0 394.084C2.09 384.934 3.49176 376.444 5.99213 368.292C13.4651 343.925 26.0076 322.677 46.0086 306.359C69.0935 287.525 95.7655 278.435 125.372 278.314C191.028 278.046 256.686 277.929 322.343 278.117C345.104 278.183 367.615 277.343 389.275 269.461C399.015 265.917 408.623 261.922 415.796 254.133C418.041 251.696 420.232 247.812 419.98 244.797C419.592 240.156 414.536 239.286 410.676 238.795C404.418 237.999 398.065 237.644 391.753 237.637C324.759 237.567 257.765 237.66 190.771 237.564C175.773 237.542 161.186 234.856 147.902 227.577C113.298 208.615 121.12 174.251 141.594 155.873C161.2 138.273 184.824 132.415 210.311 132.367C285.295 132.225 360.281 132.089 435.264 132.378C456.128 132.458 476.54 136.393 494.463 147.771C522.038 165.275 533.194 191.325 530.405 223.255C526.46 268.433 504.36 304.277 471.419 334.175C467.482 337.749 463.187 340.928 458.764 344.495ZM155.164 382.668C146.023 382.668 136.883 382.668 127.743 382.668C127.746 383.279 127.75 383.89 127.753 384.501C137.166 384.501 146.579 384.501 156.913 384.562C201.697 385.85 246.474 387.583 291.266 388.264C319.828 388.698 348.047 385.084 375.545 376.729C418.044 363.816 452.781 340.008 478.804 303.817C479.646 302.645 480.304 301.341 481.39 299.527C469.995 308.633 459.851 317.851 448.634 325.493C417.983 346.376 384.236 360.601 348.359 369.824C313.001 378.913 276.906 382.071 240.556 382.633C212.402 383.069 184.239 382.882 155.164 382.668Z" fill="#FDFDFD"/>
<path d="M117.582 230.953C82.4227 214.723 64.9286 187.202 64.3677 149.181C63.7991 110.631 79.2337 78.3091 105.647 51.1407C138.674 17.1684 179.782 0.620462 226.675 0.341409C333.308 -0.293173 439.947 0.150339 546.584 0.155618C549.06 0.15574 551.536 0.155648 554.914 0.155648C554.551 3.24305 554.426 5.80195 553.931 8.28666C547.093 42.5465 529.733 69.911 500.315 89.1445C482.188 100.996 461.818 105.319 440.493 105.354C368.846 105.473 297.198 105.598 225.552 105.297C197.716 105.18 171.66 111.259 147.955 125.726C127.834 138.005 110.929 153.591 103.544 177.046C98.2142 193.977 101.073 209.295 113.828 222.1C118.35 226.641 123.444 230.613 128.735 235.246C124.906 233.788 121.412 232.459 117.582 230.953Z" fill="#FDFDFD"/>
</svg>
