<svg width="2064" height="1104" viewBox="0 0 2064 1104" fill="none" xmlns="http://www.w3.org/2000/svg">
<rect width="2064" height="1104" rx="50" fill="black"/>
<path d="M1152.06 649.924C1125.39 668.786 1095.69 678.996 1063.61 681.743C1046.33 683.223 1028.88 682.935 1011.5 682.967C959.415 683.063 907.331 682.924 855.247 682.877C852.825 682.875 850.402 682.877 847 682.877C848.39 676.796 849.322 671.155 850.985 665.737C855.954 649.545 864.294 635.425 877.594 624.582C892.945 612.066 910.681 606.025 930.368 605.945C974.028 605.767 1017.69 605.689 1061.35 605.814C1076.48 605.858 1091.45 605.3 1105.86 600.062C1112.33 597.707 1118.72 595.052 1123.49 589.876C1124.98 588.257 1126.44 585.676 1126.27 583.672C1126.02 580.588 1122.65 580.01 1120.09 579.684C1115.93 579.155 1111.7 578.919 1107.5 578.915C1062.95 578.868 1018.41 578.93 973.857 578.866C963.883 578.851 954.184 577.066 945.35 572.229C922.339 559.629 927.541 536.793 941.155 524.58C954.193 512.885 969.902 508.993 986.85 508.961C1036.71 508.866 1086.58 508.776 1136.44 508.968C1150.31 509.021 1163.88 511.636 1175.8 519.196C1194.14 530.829 1201.56 548.139 1199.7 569.357C1197.08 599.379 1182.38 623.198 1160.48 643.066C1157.86 645.441 1155 647.553 1152.06 649.924ZM950.179 675.291C944.101 675.291 938.023 675.291 931.945 675.291C931.947 675.697 931.949 676.103 931.952 676.509C938.211 676.509 944.47 676.509 951.342 676.549C981.122 677.405 1010.9 678.557 1040.68 679.009C1059.68 679.297 1078.44 676.896 1096.73 671.344C1124.99 662.763 1148.09 646.942 1165.39 622.892C1165.95 622.114 1166.39 621.247 1167.11 620.041C1159.53 626.093 1152.79 632.218 1145.33 637.296C1124.95 651.174 1102.5 660.626 1078.65 666.755C1055.14 672.795 1031.13 674.894 1006.96 675.267C988.241 675.557 969.513 675.432 950.179 675.291Z" fill="#FDFDFD"/>
<path d="M925.188 574.473C901.808 563.688 890.175 545.399 889.802 520.134C889.424 494.516 899.688 473.038 917.252 454.984C939.214 432.409 966.55 421.412 997.731 421.227C1068.64 420.805 1139.55 421.1 1210.46 421.103C1212.11 421.103 1213.75 421.103 1216 421.103C1215.76 423.155 1215.68 424.856 1215.35 426.507C1210.8 449.273 1199.26 467.457 1179.69 480.238C1167.64 488.114 1154.09 490.986 1139.91 491.01C1092.27 491.089 1044.63 491.172 996.985 490.972C978.475 490.894 961.149 494.934 945.385 504.547C932.006 512.707 920.764 523.064 915.854 538.651C912.309 549.902 914.21 560.081 922.692 568.59C925.699 571.607 929.086 574.247 932.605 577.325C930.059 576.357 927.735 575.473 925.188 574.473Z" fill="#FDFDFD"/>
</svg>
